<?xml version="1.0" encoding="utf-8"?>
<!-- Generator: Adobe Illustrator 19.2.1, SVG Export Plug-In . SVG Version: 6.00 Build 0)  -->
<svg version="1.1" id="Laag_1" xmlns="http://www.w3.org/2000/svg" xmlns:xlink="http://www.w3.org/1999/xlink" x="0px" y="0px"
	 viewBox="0 0 189 76" style="enable-background:new 0 0 189 76;" xml:space="preserve">
<style type="text/css">
	.st0{enable-background:new    ;}
	.st1{fill:#CCCCCC;}
</style>
<g class="st0">
	<path class="st1" d="M19.1,14.9c0,3.8-3,5.7-5.8,6.1c-1,0.1-1.7,0.1-2.9,0.1H2.5V0.4h7.9c1.1,0,1.6,0,2.7,0.1
		C16.5,1,18.4,3,18.4,5.8c0,2-1.1,3.5-3.1,4.2C17.9,10.6,19.1,12.3,19.1,14.9z M7.3,8.8h2.8c0.5,0,1,0,1.4-0.1c1.3-0.2,2-0.9,2-2.3
		s-0.8-2-2-2.2c-0.4-0.1-1-0.1-1.4-0.1H7.3V8.8z M14.2,14.8c0-1.7-1.1-2.5-2.4-2.6c-0.5-0.1-1-0.1-1.4-0.1H7.3v5.2h3.3
		c0.5,0,1,0,1.4,0C13.1,17.3,14.2,16.4,14.2,14.8z"/>
	<path class="st1" d="M42.4,10.8c0,6.5-4,10.8-10.4,10.8c-6.4,0-10.4-4.2-10.4-10.8C21.6,4.2,25.6,0,32,0C38.4,0,42.4,4.2,42.4,10.8
		z M37.5,10.8c0-4.6-2.1-7.3-5.5-7.3c-3.5,0-5.5,2.6-5.5,7.3c0,4.6,2.1,7.3,5.5,7.3C35.4,18.1,37.5,15.4,37.5,10.8z"/>
	<path class="st1" d="M65.6,10.8c0,6.5-4,10.8-10.4,10.8c-6.4,0-10.4-4.2-10.4-10.8c0-6.6,4-10.8,10.4-10.8
		C61.6,0,65.6,4.2,65.6,10.8z M60.8,10.8c0-4.6-2.1-7.3-5.5-7.3c-3.5,0-5.5,2.6-5.5,7.3c0,4.6,2.1,7.3,5.5,7.3
		C58.7,18.1,60.8,15.4,60.8,10.8z"/>
	<path class="st1" d="M92,21.1h-4.7v-9.2c0-2,0-4.7,0.1-6.9c-0.4,2.1-1.1,4.9-1.7,6.8L83,21.1h-5l-2.7-9.2c-0.6-2-1.3-4.7-1.6-6.8
		c0.1,2.1,0.1,4.8,0.1,6.8v9.2h-4.7V0.4h7.4l4.2,16.2l4.2-16.2H92V21.1z"/>
	<path class="st1" d="M106.3,21.1h-4.7v-7.9L94.3,0.4h5.3l4.5,8.6l4.3-8.6h5.2l-7.3,12.7V21.1z"/>
</g>
<g class="st0">
	<path class="st1" d="M7.2,41.3l-1.9,5.8h-5l7.5-20.7h5.8L21,47.1h-5.1L14,41.3H7.2z M8.4,37.6h4.4l-2.2-7.1L8.4,37.6z"/>
	<path class="st1" d="M35.9,47.1l-8.1-14.8c0.1,2.2,0.2,4.3,0.2,5.8v9h-4.7V26.4h6l8.3,15.2c-0.1-2.2-0.1-4.5-0.1-6v-9.2h4.7v20.7
		H35.9z"/>
	<path class="st1" d="M46.5,47.1V26.4h4.7v20.7H46.5z"/>
	<path class="st1" d="M78.5,47.1h-4.7v-9.2c0-2,0-4.7,0.1-6.9c-0.4,2.1-1.1,4.9-1.7,6.8l-2.6,9.2h-5l-2.7-9.2
		c-0.6-2-1.3-4.7-1.6-6.8c0.1,2.1,0.1,4.8,0.1,6.8v9.2h-4.7V26.4h7.4l4.2,16.2l4.2-16.2h7.2V47.1z"/>
	<path class="st1" d="M87.5,41.3l-1.9,5.8h-5L88,26.4h5.8l7.4,20.7h-5.1l-1.9-5.8H87.5z M88.7,37.6h4.4l-2.2-7.1L88.7,37.6z"/>
	<path class="st1" d="M118.9,47.1h-15.4V26.4h4.7v16.7h10.6V47.1z"/>
</g>
<g class="st0">
	<path class="st1" d="M20.8,59.2l0,0.3h-4.7l-0.1-0.3c-0.5-2.4-1.9-3.7-4.4-3.7c-3,0-5.1,2.5-5.1,7.1c0,5.2,2.3,7.4,5.1,7.4
		c2.4,0,3.9-1.5,4.4-3.9l0.1-0.3h4.7l0,0.3c-0.5,4.7-4,7.4-9.3,7.4c-5.7,0-9.9-3.9-9.9-10.6C1.6,55.9,6,52,11.7,52
		C17.4,52,20.4,55.1,20.8,59.2z"/>
	<path class="st1" d="M41.3,73.1h-5.1c-0.5-1.4-0.8-2.7-1-4.4c-0.3-2.2-1.1-3.6-2.7-3.7c-0.6,0-1.1,0-1.6,0H29v8.1h-4.7V52.4h7.9
		c1.2,0,2,0,3.1,0.2c3,0.4,5.5,1.9,5.5,5.5c0,2.6-1.5,4.3-4.1,5.1c2.1,0.8,2.9,2.4,3.1,4.8C40.1,70.4,40.5,71.9,41.3,73.1z
		 M31.4,61.5c0.7,0,1.2,0,1.6,0c1.5-0.2,2.8-0.8,2.8-2.7s-1.1-2.5-2.6-2.7c-0.4,0-0.9-0.1-1.6-0.1H29v5.5H31.4z"/>
	<path class="st1" d="M49,67.3L47,73.1h-5l7.5-20.7h5.8l7.4,20.7h-5.1l-1.9-5.8H49z M50.1,63.6h4.4l-2.2-7.1L50.1,63.6z"/>
	<path class="st1" d="M82.8,59.2l0,0.3h-4.7L78,59.2c-0.5-2.4-1.9-3.7-4.4-3.7c-3,0-5.1,2.5-5.1,7.1c0,5.2,2.3,7.4,5.1,7.4
		c2.4,0,3.9-1.5,4.4-3.9l0.1-0.3h4.7l0,0.3c-0.5,4.7-4,7.4-9.3,7.4c-5.7,0-9.9-3.9-9.9-10.6c0-7,4.4-10.9,10.1-10.9
		C79.4,52,82.3,55.1,82.8,59.2z"/>
	<path class="st1" d="M104.7,73.1h-6l-6.1-8.2L91,66.7v6.5h-4.7V52.4H91V62l8.5-9.6h5.6L96,62.3L104.7,73.1z"/>
	<path class="st1" d="M122.9,73.1h-15.4V52.4h15.1v3.7h-10.3v4.8h9.7v3.7h-9.7v4.9h10.6V73.1z"/>
	<path class="st1" d="M143.4,73.1h-5.1c-0.5-1.4-0.8-2.7-1-4.4c-0.3-2.2-1.1-3.6-2.7-3.7c-0.6,0-1.1,0-1.6,0H131v8.1h-4.7V52.4h7.9
		c1.2,0,2,0,3.1,0.2c3,0.4,5.5,1.9,5.5,5.5c0,2.6-1.5,4.3-4.1,5.1c2.1,0.8,2.9,2.4,3.2,4.8C142.1,70.4,142.5,71.9,143.4,73.1z
		 M133.5,61.5c0.7,0,1.2,0,1.6,0c1.5-0.2,2.8-0.8,2.8-2.7s-1.1-2.5-2.6-2.7c-0.4,0-0.9-0.1-1.6-0.1H131v5.5H133.5z"/>
	<path class="st1" d="M161.2,58.6h-4.7c-0.2-1.9-1.3-3.2-3.3-3.2c-1.5,0-2.5,0.7-2.5,2.2c0,1.6,1,2.4,4.4,3.2
		c4.6,1.1,6.5,3.2,6.5,6.5c0,4-3.8,6.2-7.9,6.2c-5.1,0-8.4-2.2-8.8-6.6h4.7c0.4,2.1,2.1,3.2,4,3.2c1.7,0,3.1-0.9,3.1-2.3
		c0-1.4-1-2.4-3.8-3.1c-4.4-1.1-7.1-2.6-7.1-6.5c0-3.9,3.6-6.1,7.6-6.1C158.5,52,160.8,54.9,161.2,58.6z"/>
</g>
</svg>
