<?xml version="1.0" encoding="utf-8"?>
<!-- Generator: Adobe Illustrator 19.2.1, SVG Export Plug-In . SVG Version: 6.00 Build 0)  -->
<svg version="1.1" id="Capa_1" xmlns="http://www.w3.org/2000/svg" xmlns:xlink="http://www.w3.org/1999/xlink" x="0px" y="0px"
	 viewBox="0 0 25 25" style="enable-background:new 0 0 25 25;" xml:space="preserve">
<style type="text/css">
	.st0{fill:#838383;}
</style>
<path class="st0" d="M5.3,16.1l0.1,0.4c0.1,0.5,0.5,0.8,0.9,0.9c0.4,0.1,0.8,0.1,1.1,0.2L8,20.4c0.1,0.5,0.4,0.9,0.7,1.2l0.7,2.3
	C9,24,8.9,24.3,8.8,24.5c-0.1,0.1,0,0.2,0.1,0.3C8.9,24.9,9,25,9.1,25h0.5h0.1c0.1,0,0.4-0.1,0.6-0.4c0.1-0.2,0.1-0.4,0.1-0.6
	c-0.1-0.3-0.1-1.4,0-2.3c0.4,0,0.8-0.2,1.4-0.4c0.3-0.1,0.7-0.2,0.9-0.3c0.8-0.2,1.4,0,1.6,0.1l0.5,1.1c0.2,0.5,0.6,0.8,1.1,1
	c0.3,0.1,0.5,0.3,0.7,0.6c-0.2,0.1-0.4,0.4-0.5,0.6c0,0.1,0,0.2,0.1,0.3c0.1,0.1,0.2,0.1,0.3,0.1H17c0.2,0,0.4-0.1,0.5-0.2
	c0.1-0.1,0.2-0.4,0.1-0.5l-0.2-1c-0.1-0.2-0.2-0.5-0.5-0.6c-0.1-0.1-0.2-0.2-0.2-0.4c0-0.8-0.1-2.1-0.2-2.8
	c-0.1-0.4-0.3-0.7-0.5-0.8c0.4-0.7,0.5-1.4,0.2-2.1l-0.1-0.1c0.1-0.1-0.1-0.2-0.2-0.3c-0.1-0.1-0.3,0-0.4,0.1
	c-0.2,0.1-0.3,0.4-0.2,0.6l0.1,0.2c0.1,0.3,0,0.7-0.2,0.8l-0.3,0.3l-3.2-0.1c-0.9,0-1.7-0.6-2-1.4l-0.2-0.6l0.3-0.2
	c0.1-0.1,0.1-0.2,0.1-0.2s-0.1-0.1-0.1-0.2l-1.2-0.5l0,0c-0.1,0-0.2,0-0.2,0L7,15c-0.1,0-0.2,0.1-0.3,0.2l-0.1,0.2l-0.9,0.1
	c-0.1,0-0.2,0.1-0.3,0.2C5.3,15.9,5.3,16,5.3,16.1z M9.3,15.4l-0.5,0.5H8.8c0,0,0,0,0-0.1l-0.1-0.7L9.3,15.4z"/>
</svg>
