<?xml version="1.0" encoding="utf-8"?>
<!-- Generator: Adobe Illustrator 19.2.1, SVG Export Plug-In . SVG Version: 6.00 Build 0)  -->
<svg version="1.1" id="Capa_1" xmlns="http://www.w3.org/2000/svg" xmlns:xlink="http://www.w3.org/1999/xlink" x="0px" y="0px"
	 viewBox="0 0 25 25" style="enable-background:new 0 0 25 25;" xml:space="preserve">
<style type="text/css">
	.st0{fill:#838383;}
</style>
<path class="st0" d="M9.1,9.3l0.7-0.7c0.1-0.1,0.2-0.2,0.4-0.2c0.2,0,0.3,0.1,0.4,0.2l0.5,0.5c0.2,0.2,0.5,0.1,0.5-0.2V5.5
	c0-0.3,0.2-0.5,0.5-0.5h1c0.3,0,0.5,0.2,0.5,0.5v3.4c0,0.2,0.3,0.4,0.5,0.2l0.5-0.5c0.1-0.1,0.2-0.2,0.4-0.2s0.3,0.1,0.4,0.2
	l0.7,0.7c0.1,0.1,0.2,0.2,0.2,0.4c0,0.2-0.1,0.3-0.2,0.4L13,13.2c-0.1,0.1-0.3,0.2-0.4,0.2c-0.1,0-0.3-0.1-0.4-0.2l-3.1-3.1
	C9,9.9,9,9.8,9,9.7C9,9.5,9,9.4,9.1,9.3z M19.4,16.9c0,0.3-0.2,0.5-0.5,0.5H6.4c-0.3,0-0.5-0.2-0.5-0.5v-3.1c0-0.3,0.2-0.5,0.5-0.5
	h1c0.3,0,0.5,0.2,0.5,0.5v1.3c0,0.2,0.1,0.3,0.3,0.3H17c0.2,0,0.3-0.1,0.3-0.3v-1.3c0-0.3,0.2-0.5,0.5-0.5h1c0.3,0,0.5,0.2,0.5,0.5
	V16.9z"/>
</svg>
