<?xml version="1.0" encoding="utf-8"?>
<!-- Generator: Adobe Illustrator 19.2.1, SVG Export Plug-In . SVG Version: 6.00 Build 0)  -->
<svg version="1.1" id="Capa_1" xmlns="http://www.w3.org/2000/svg" xmlns:xlink="http://www.w3.org/1999/xlink" x="0px" y="0px"
	 viewBox="0 0 25 25" style="enable-background:new 0 0 25 25;" xml:space="preserve">
<style type="text/css">
	.st0{fill:#838383;}
</style>
<g>
	<g id="Sut7Eu_1_">
		<g>
			<g>
				<path class="st0" d="M20,24.8c0.2-0.3,0.3-0.5,0.5-0.7c0.2-0.1,0.2-0.3,0.2-0.4c-0.1-0.2,0-0.4,0.1-0.5c0.1-0.2,0.1-0.4,0.1-0.6
					c-0.1-0.6-0.2-1.1-0.4-1.7c-0.1-0.5-0.4-0.9-0.7-1.3c-0.1-0.1-0.2-0.2-0.3-0.3c-0.4-0.4-0.7-0.8-1-1.3c-0.2-0.3-0.4-0.6-0.7-0.8
					c-0.2-0.2-0.4-0.4-0.6-0.5c0,0,0,0-0.1,0c-0.3,0.3-0.6,0.6-0.7,1c-0.1,0.6-0.1,1.2,0.1,1.8c0.1,0.3,0.1,0.5-0.1,0.8
					c-0.1,0.2-0.3,0.4-0.4,0.6c-0.4,0.7-0.7,1.5-1,2.3c0,0.1,0,0.1-0.1,0.2c-0.1,0.2-0.3,0.3-0.5,0.3s-0.3,0.1-0.4,0.2
					c-0.1,0.1-0.2,0.2-0.1,0.4c0,0.2-0.1,0.4-0.3,0.4s-0.5,0-0.7,0s-0.3,0-0.5-0.1c0-0.3,0.3-0.7,0.5-0.8c0.1-0.1,0.2-0.1,0.3-0.2
					c0.4-0.2,0.7-0.5,0.9-0.8c0.4-0.7,0.7-1.4,0.9-2.2c0.1-0.5,0.1-0.9,0-1.4c0-0.4-0.2-0.8-0.3-1.2c0-0.3-0.1-0.5-0.1-0.8
					c0-0.1,0-0.3,0-0.4v-0.1c-0.1-0.1-0.2-0.2-0.2-0.4c-0.2,0-0.3,0.1-0.4,0.1c-0.4,0.2-0.8,0.3-1.2,0.4c-0.5,0.1-0.9,0-1.4,0
					c-0.4,0-0.8-0.1-1.2-0.1c-0.1,0-0.3,0-0.4,0c-0.2,0-0.4,0.2-0.5,0.4c-0.1,0.2-0.2,0.5-0.2,0.7c0,0.6,0,1.1,0,1.7
					c0,0.3,0.1,0.5,0.1,0.8c0,0.2,0,0.4,0,0.6s-0.1,0.5-0.1,0.7c0,0.4,0.1,0.8,0.1,1.2c0,0.2,0,0.4,0,0.6c0,0.1-0.1,0.3-0.2,0.3
					c-0.1,0-0.1,0-0.2,0.1c-0.2,0.1-0.3,0.2-0.3,0.5c0,0.1,0,0.2,0,0.3c0,0.2-0.1,0.3-0.2,0.3c-0.3,0.1-0.7,0.1-1,0
					c0,0-0.1,0-0.1-0.1c0.1-0.3,0.3-0.6,0.6-0.7c0.1,0,0.2-0.1,0.3-0.2s0.2-0.2,0.2-0.4c0-0.1,0-0.3,0.1-0.4c0-0.2,0.1-0.4,0.1-0.6
					c0-0.1,0-0.3,0-0.4c-0.1-0.5-0.1-1-0.3-1.5c0-0.1,0-0.3,0-0.4c0-0.4,0-0.7-0.1-1.1c0-0.2-0.1-0.4-0.2-0.6c0-0.1-0.1-0.3-0.1-0.5
					c-0.1-0.4-0.3-0.8-0.5-1.2c-0.1-0.1-0.1-0.1-0.3-0.1c-0.1,0-0.2,0-0.3,0c-0.2,0-0.4,0-0.6,0.1c-0.3,0.1-0.5,0.1-0.8,0.1
					c-0.3,0-0.7-0.1-1-0.1c-0.1,0-0.2,0-0.3-0.1c-0.1,0-0.2,0-0.2,0.2c0,0.1,0,0.2-0.1,0.3c0,0.1,0,0.3,0,0.4
					c0.2,0.3,0.3,0.5,0.5,0.7c0.1,0.1,0.2,0.1,0.2,0.1c0.2,0,0.3,0.2,0.4,0.4v0.1c0.1,0,0.2,0,0.2,0c0.1-0.1,0.3-0.1,0.4-0.1
					c0.2,0,0.3,0,0.5,0.1c0.1,0.2,0.3,0.4,0.3,0.7c0,0.1-0.1,0.2-0.2,0.2c-0.3,0-0.7-0.1-0.9-0.3c-0.2-0.1-0.4-0.1-0.6-0.1
					c-0.3,0-0.4-0.1-0.6-0.4c-0.2-0.5-0.6-1-0.9-1.4c-0.2-0.2-0.2-0.5-0.2-0.7c0-0.2,0-0.4,0-0.5c0-0.4,0.2-0.5,0.3-0.5
					c0.4,0,0.8-0.2,1.2-0.4c0.3-0.1,0.5-0.2,0.8-0.2c0.1,0,0.2-0.1,0.2-0.2c0-0.3,0.1-0.5,0-0.8c-0.1-0.2,0-0.5,0.1-0.7
					c0.2-0.4,0.2-0.7,0.1-1.1c-0.2-0.5-0.3-1.1-0.2-1.7c0-0.3,0-0.7,0-1c0-0.4-0.4-0.6-0.7-0.5l0,0v0.1c0.2,0.3,0.1,0.6,0,0.9
					s-0.2,0.7-0.2,1c0,0.2,0,0.4,0.1,0.5c0.2,0.2,0.1,0.2,0,0.4c0,0-0.1,0.1-0.1,0.2c0,0.4-0.5,0.6-0.8,0.4c-0.1,0-0.2-0.1-0.3-0.1
					c-0.2,0-0.2-0.1-0.2-0.2c0-0.1,0-0.2-0.1-0.3c-0.2-0.4-0.4-0.8-0.6-1.3c-0.1-0.2-0.2-0.5-0.4-0.6C1.8,10.2,1.7,10,1.8,9.8
					c0-0.1,0-0.2-0.1-0.2S1.6,9.5,1.6,9.5C1.5,9.4,1.4,9.3,1.4,9.1c-0.1,0-0.3,0-0.4,0C0.9,8.9,0.8,8.9,0.6,8.8
					c0.1,0,0.1-0.1,0.2-0.1c0-0.1-0.1-0.1-0.2-0.2V8.4c0.1,0,0.3,0,0.4,0s0.2,0,0.3-0.1c0.1-0.1,0.3-0.2,0.5-0.4
					c0.1,0,0.1-0.1,0.2-0.1c0.2-0.4,0.5-0.6,0.8-0.9c0.1,0,0.2-0.1,0.3-0.1s0.2-0.1,0.3-0.1s0.1-0.1,0.2-0.1c0.2,0,0.3-0.1,0.5-0.1
					c0.1,0,0.2-0.1,0.3,0h0.1C4.6,6.4,4.8,6.4,5,6.4l0,0c0.5,0,1,0,1.5,0c0.1,0.1,0.2,0.2,0.3,0.2c0.3,0,0.5,0.1,0.7,0.3
					c0.1,0,0.3,0.1,0.4,0.2c0.2,0.1,0.4,0.2,0.5,0.5c0,0.2,0.2,0.3,0.3,0.4C9,8.1,9.3,8.3,9.4,8.6C9.6,8.7,9.8,8.9,9.9,9
					c0.4,0.3,0.7,0.6,1,0.9s0.6,0.5,1,0.6c0.5,0.3,1,0.3,1.6,0.3c0,0,0,0,0.1,0c0.7,0,1.3-0.1,1.9-0.2c0.5-0.1,0.9-0.2,1.4-0.3
					c0.5-0.1,0.9,0,1.4,0.1c0.5,0.2,1,0.4,1.4,0.6c0.4,0.2,0.7,0.2,1.1,0s0.7-0.3,1.1-0.3c0.7-0.1,1.2,0.1,1.7,0.5
					c0.5,0.4,0.8,0.9,0.9,1.5c0,0,0,0,0,0.1c0,0.4,0,0.7,0,1.1c-0.1,0.2-0.2,0.4-0.3,0.6c-0.1,0.3-0.3,0.5-0.3,0.8
					c-0.1,0.4-0.4,0.7-0.6,1c-0.2,0.2-0.4,0.4-0.6,0.7c-0.2,0.2-0.3,0.4-0.4,0.6c0,0,0,0-0.1,0.1c0-0.2,0.1-0.4,0.1-0.6
					c-0.2,0.4-0.3,0.7-0.2,1.1c0.1,0.5-0.2,2-0.3,1.9c-0.1-0.2-0.3-0.4-0.4-0.7c-0.2-0.3-0.3-0.6-0.3-0.9c0,0.2,0,0.4,0,0.6
					c-0.4-0.3-0.6-1.6,0-2.5c-0.2-0.3-0.2-0.6-0.2-0.9c0-0.4,0.2-0.8,0.4-1.1c0.2-0.2,0.3-0.5,0.5-0.7c0.2-0.3,0.3-0.6,0.3-1
					c0-0.5-0.4-1-0.9-1.1c-0.2,0-0.4-0.1-0.6,0c-0.3,0.1-0.4,0.3-0.3,0.6c0,0,0,0.1,0.1,0.1c0.2,0.4,0.3,0.7,0.2,1.2
					c-0.1,0.7-0.3,1.5-0.5,2.2c-0.2,0.5-0.3,1.1-0.2,1.6c0.1,0.6,0.2,1.2,0.6,1.6c0.1,0.1,0.2,0.2,0.3,0.2c0.1,0.1,0.2,0.2,0.2,0.3
					c0,0.2,0,0.5,0,0.7c0,0.7,0.1,1.4,0.2,2c0.1,0.3,0.1,0.5,0.2,0.8c0,0.1,0,0.2,0,0.2c0,0.2-0.1,0.4-0.2,0.5
					C21,23.9,21,24,21.1,24.3c0,0.1,0,0.1,0.1,0.2c0,0.2,0,0.3-0.2,0.4L20.9,25c-0.4,0-0.7,0-1.1,0C20,24.9,19.9,24.9,20,24.8z"/>
			</g>
		</g>
	</g>
</g>
</svg>
