<?xml version="1.0" encoding="utf-8"?>
<!-- Generator: Adobe Illustrator 19.2.1, SVG Export Plug-In . SVG Version: 6.00 Build 0)  -->
<svg version="1.1" id="Capa_1" xmlns="http://www.w3.org/2000/svg" xmlns:xlink="http://www.w3.org/1999/xlink" x="0px" y="0px"
	 viewBox="0 0 25 25" style="enable-background:new 0 0 25 25;" xml:space="preserve">
<style type="text/css">
	.st0{fill:#838383;}
</style>
<g>
	<path class="st0" d="M12.5,0.5c-4.4,0-7.9,3.6-7.9,7.9c0,1.8,1.1,4.6,3.4,8.8c1.6,2.9,3.2,5.4,3.3,5.5l1.2,1.8l1.2-1.8
		c0.1-0.1,1.7-2.5,3.3-5.5c2.3-4.1,3.4-7,3.4-8.8C20.4,4.1,16.9,0.5,12.5,0.5z M12.5,12.5c-2.3,0-4.1-1.8-4.1-4.1s1.8-4.1,4.1-4.1
		s4.1,1.8,4.1,4.1S14.8,12.5,12.5,12.5z"/>
</g>
</svg>
